<svg width="358" height="406" viewBox="0 0 358 406" fill="none" xmlns="http://www.w3.org/2000/svg">
<g filter="url(#filter0_d_95_1318)">
<rect x="50.0001" y="46" width="257.212" height="294.122" rx="24" fill="#EEFF55"/>
</g>
<path d="M136 91.9998C136 109.673 121.673 124 104 124C86.327 124 72.0001 109.673 72.0001 91.9998C72.0001 74.3266 86.327 59.9998 104 59.9998C121.673 59.9998 136 74.3266 136 91.9998ZM81.6001 91.9998C81.6001 104.371 91.6289 114.4 104 114.4C116.371 114.4 126.4 104.371 126.4 91.9998C126.4 79.6286 116.371 69.5998 104 69.5998C91.6289 69.5998 81.6001 79.6286 81.6001 91.9998Z" fill="white"/>
<mask id="path-3-outside-1_95_1318" maskUnits="userSpaceOnUse" x="70.0001" y="57.9998" width="54" height="68" fill="black">
<rect fill="white" x="70.0001" y="57.9998" width="54" height="68"/>
<path d="M104 59.9998C99.0487 59.9998 94.1649 61.1487 89.7329 63.3563C85.3009 65.5639 81.4416 68.7698 78.4587 72.7219C75.4758 76.6739 73.4507 81.2642 72.5428 86.1317C71.6348 90.9991 71.8687 96.0108 73.2261 100.772C74.5835 105.534 77.0274 109.916 80.3654 113.573C83.7035 117.23 87.8446 120.062 92.463 121.848C97.0813 123.633 102.051 124.322 106.981 123.861C111.911 123.399 116.666 121.801 120.873 119.19L115.811 111.033C112.866 112.86 109.538 113.98 106.087 114.302C102.636 114.625 99.157 114.143 95.9241 112.893C92.6912 111.644 89.7925 109.661 87.4558 107.101C85.1192 104.541 83.4085 101.474 82.4583 98.1407C81.5081 94.8075 81.3444 91.2993 81.98 87.8921C82.6156 84.4849 84.0331 81.2717 86.1211 78.5052C88.2092 75.7388 90.9106 73.4947 94.0131 71.9494C97.1155 70.4041 100.534 69.5998 104 69.5998V59.9998Z"/>
</mask>
<path d="M104 59.9998C99.0487 59.9998 94.1649 61.1487 89.7329 63.3563C85.3009 65.5639 81.4416 68.7698 78.4587 72.7219C75.4758 76.6739 73.4507 81.2642 72.5428 86.1317C71.6348 90.9991 71.8687 96.0108 73.2261 100.772C74.5835 105.534 77.0274 109.916 80.3654 113.573C83.7035 117.23 87.8446 120.062 92.463 121.848C97.0813 123.633 102.051 124.322 106.981 123.861C111.911 123.399 116.666 121.801 120.873 119.19L115.811 111.033C112.866 112.86 109.538 113.98 106.087 114.302C102.636 114.625 99.157 114.143 95.9241 112.893C92.6912 111.644 89.7925 109.661 87.4558 107.101C85.1192 104.541 83.4085 101.474 82.4583 98.1407C81.5081 94.8075 81.3444 91.2993 81.98 87.8921C82.6156 84.4849 84.0331 81.2717 86.1211 78.5052C88.2092 75.7388 90.9106 73.4947 94.0131 71.9494C97.1155 70.4041 100.534 69.5998 104 69.5998V59.9998Z" fill="#01AFD1"/>
<path d="M104 59.9998C99.0487 59.9998 94.1649 61.1487 89.7329 63.3563C85.3009 65.5639 81.4416 68.7698 78.4587 72.7219C75.4758 76.6739 73.4507 81.2642 72.5428 86.1317C71.6348 90.9991 71.8687 96.0108 73.2261 100.772C74.5835 105.534 77.0274 109.916 80.3654 113.573C83.7035 117.23 87.8446 120.062 92.463 121.848C97.0813 123.633 102.051 124.322 106.981 123.861C111.911 123.399 116.666 121.801 120.873 119.19L115.811 111.033C112.866 112.86 109.538 113.98 106.087 114.302C102.636 114.625 99.157 114.143 95.9241 112.893C92.6912 111.644 89.7925 109.661 87.4558 107.101C85.1192 104.541 83.4085 101.474 82.4583 98.1407C81.5081 94.8075 81.3444 91.2993 81.98 87.8921C82.6156 84.4849 84.0331 81.2717 86.1211 78.5052C88.2092 75.7388 90.9106 73.4947 94.0131 71.9494C97.1155 70.4041 100.534 69.5998 104 69.5998V59.9998Z" stroke="#EEFF55" stroke-width="3.87879" mask="url(#path-3-outside-1_95_1318)"/>
<path d="M155.607 80.3881C155.481 79.8044 155.26 79.3706 154.944 79.0867C154.629 78.787 154.179 78.6371 153.596 78.6371C152.696 78.6371 152.05 79.0315 151.655 79.8202C151.261 80.5932 151.056 81.8236 151.04 83.5115C151.387 82.9594 151.884 82.5256 152.531 82.2101C153.193 81.8946 153.919 81.7368 154.708 81.7368C156.254 81.7368 157.492 82.2259 158.423 83.2039C159.369 84.1819 159.842 85.5464 159.842 87.2974C159.842 88.449 159.606 89.4586 159.133 90.3262C158.675 91.1938 157.997 91.8721 157.098 92.3611C156.214 92.8501 155.165 93.0946 153.951 93.0946C151.521 93.0946 149.833 92.3375 148.887 90.8231C147.94 89.2929 147.467 87.1002 147.467 84.245C147.467 81.2478 147.964 79.0236 148.958 77.5723C149.967 76.1053 151.576 75.3717 153.785 75.3717C154.968 75.3717 155.962 75.6083 156.766 76.0816C157.587 76.5391 158.202 77.1464 158.612 77.9036C159.038 78.6608 159.29 79.4889 159.369 80.3881H155.607ZM153.738 84.9312C153.059 84.9312 152.491 85.1363 152.034 85.5464C151.592 85.9408 151.371 86.5087 151.371 87.2501C151.371 88.0073 151.576 88.5988 151.987 89.0248C152.413 89.4507 153.012 89.6636 153.785 89.6636C154.479 89.6636 155.023 89.4586 155.418 89.0484C155.828 88.6225 156.033 88.0467 156.033 87.3211C156.033 86.5797 155.836 85.996 155.441 85.5701C155.047 85.1442 154.479 84.9312 153.738 84.9312ZM161.989 89.7583C162.525 89.3324 162.77 89.1352 162.723 89.1667C164.269 87.889 165.483 86.84 166.367 86.0197C167.266 85.1994 168.023 84.3397 168.638 83.4405C169.253 82.5413 169.561 81.6658 169.561 80.814C169.561 80.1672 169.411 79.6625 169.111 79.2996C168.812 78.9368 168.362 78.7554 167.763 78.7554C167.163 78.7554 166.69 78.9841 166.343 79.4416C166.012 79.8833 165.846 80.5143 165.846 81.3346H161.942C161.973 79.9937 162.257 78.8737 162.794 77.9746C163.346 77.0754 164.063 76.4129 164.947 75.9869C165.846 75.561 166.84 75.3481 167.928 75.3481C169.805 75.3481 171.217 75.8292 172.164 76.7915C173.126 77.7537 173.607 79.0078 173.607 80.5537C173.607 82.2416 173.031 83.8112 171.88 85.2625C170.728 86.698 169.261 88.1019 167.479 89.4743H173.867V92.7634H161.989V89.7583ZM175.318 80.0805C175.318 78.8027 175.68 77.8168 176.406 77.1227C177.148 76.4286 178.102 76.0816 179.269 76.0816C180.437 76.0816 181.383 76.4286 182.109 77.1227C182.834 77.8168 183.197 78.8027 183.197 80.0805C183.197 81.3582 182.834 82.3442 182.109 83.0383C181.383 83.7323 180.437 84.0794 179.269 84.0794C178.102 84.0794 177.148 83.7323 176.406 83.0383C175.68 82.3442 175.318 81.3582 175.318 80.0805ZM191.384 76.3419L182.274 93H178.37L187.48 76.3419H191.384ZM179.246 78.4478C178.488 78.4478 178.11 78.992 178.11 80.0805C178.11 81.1532 178.488 81.6895 179.246 81.6895C179.608 81.6895 179.892 81.5554 180.097 81.2873C180.302 81.0191 180.405 80.6168 180.405 80.0805C180.405 78.992 180.019 78.4478 179.246 78.4478ZM186.581 89.2614C186.581 87.9836 186.944 86.9977 187.669 86.3036C188.395 85.6095 189.341 85.2625 190.509 85.2625C191.676 85.2625 192.623 85.6095 193.348 86.3036C194.074 86.9977 194.437 87.9836 194.437 89.2614C194.437 90.5391 194.074 91.5251 193.348 92.2192C192.623 92.9132 191.676 93.2603 190.509 93.2603C189.341 93.2603 188.395 92.9132 187.669 92.2192C186.944 91.5251 186.581 90.5391 186.581 89.2614ZM190.485 87.6287C190.122 87.6287 189.838 87.7628 189.633 88.031C189.444 88.2991 189.349 88.7093 189.349 89.2614C189.349 90.3341 189.728 90.8704 190.485 90.8704C190.848 90.8704 191.132 90.7363 191.337 90.4682C191.542 90.2 191.645 89.7977 191.645 89.2614C191.645 88.725 191.542 88.3228 191.337 88.0546C191.132 87.7707 190.848 87.6287 190.485 87.6287Z" fill="black"/>
<path d="M159.02 102.976L156.261 111.817H154.744L152.615 104.799L150.485 111.817H148.969L146.194 102.976H147.694L149.727 110.397L151.921 102.976H153.421L155.567 110.413L157.568 102.976H159.02ZM161.235 101.54C160.955 101.54 160.719 101.443 160.525 101.249C160.331 101.056 160.235 100.819 160.235 100.54C160.235 100.26 160.331 100.023 160.525 99.8296C160.719 99.636 160.955 99.5392 161.235 99.5392C161.504 99.5392 161.73 99.636 161.913 99.8296C162.106 100.023 162.203 100.26 162.203 100.54C162.203 100.819 162.106 101.056 161.913 101.249C161.73 101.443 161.504 101.54 161.235 101.54ZM161.945 102.976V111.817H160.477V102.976H161.945ZM166.238 104.186V109.397C166.238 109.827 166.329 110.133 166.512 110.316C166.695 110.488 167.012 110.574 167.464 110.574H168.545V111.817H167.222C166.404 111.817 165.791 111.628 165.383 111.252C164.974 110.876 164.77 110.257 164.77 109.397V104.186H163.624V102.976H164.77V100.749H166.238V102.976H168.545V104.186H166.238ZM174.712 102.814C175.379 102.814 175.981 102.959 176.519 103.25C177.057 103.53 177.476 103.954 177.777 104.524C178.089 105.094 178.245 105.788 178.245 106.606V111.817H176.793V106.815C176.793 105.933 176.573 105.261 176.132 104.799C175.691 104.325 175.088 104.089 174.325 104.089C173.55 104.089 172.932 104.331 172.469 104.815C172.018 105.299 171.792 106.003 171.792 106.928V111.817H170.324V99.878H171.792V104.234C172.082 103.782 172.48 103.433 172.986 103.185C173.502 102.938 174.077 102.814 174.712 102.814ZM181.402 101.54C181.122 101.54 180.885 101.443 180.692 101.249C180.498 101.056 180.401 100.819 180.401 100.54C180.401 100.26 180.498 100.023 180.692 99.8296C180.885 99.636 181.122 99.5392 181.402 99.5392C181.67 99.5392 181.896 99.636 182.079 99.8296C182.273 100.023 182.37 100.26 182.37 100.54C182.37 100.819 182.273 101.056 182.079 101.249C181.896 101.443 181.67 101.54 181.402 101.54ZM182.111 102.976V111.817H180.643V102.976H182.111ZM188.921 102.814C189.997 102.814 190.868 103.142 191.535 103.798C192.202 104.444 192.535 105.379 192.535 106.606V111.817H191.083V106.815C191.083 105.933 190.863 105.261 190.422 104.799C189.981 104.325 189.378 104.089 188.615 104.089C187.84 104.089 187.222 104.331 186.759 104.815C186.308 105.299 186.082 106.003 186.082 106.928V111.817H184.614V102.976H186.082V104.234C186.372 103.782 186.765 103.433 187.259 103.185C187.765 102.938 188.319 102.814 188.921 102.814ZM200.702 104.621C201.004 104.094 201.445 103.664 202.025 103.331C202.606 102.997 203.268 102.83 204.01 102.83C204.806 102.83 205.521 103.019 206.155 103.395C206.79 103.772 207.29 104.304 207.656 104.992C208.022 105.67 208.204 106.46 208.204 107.364C208.204 108.257 208.022 109.052 207.656 109.752C207.29 110.451 206.785 110.994 206.139 111.381C205.505 111.768 204.795 111.962 204.01 111.962C203.246 111.962 202.574 111.795 201.993 111.462C201.423 111.128 200.993 110.703 200.702 110.187V111.817H199.234V99.878H200.702V104.621ZM206.704 107.364C206.704 106.697 206.57 106.116 206.301 105.621C206.032 105.127 205.666 104.75 205.204 104.492C204.752 104.234 204.252 104.105 203.703 104.105C203.165 104.105 202.665 104.239 202.203 104.508C201.751 104.766 201.385 105.148 201.106 105.654C200.837 106.148 200.702 106.724 200.702 107.38C200.702 108.047 200.837 108.633 201.106 109.139C201.385 109.633 201.751 110.015 202.203 110.284C202.665 110.542 203.165 110.671 203.703 110.671C204.252 110.671 204.752 110.542 205.204 110.284C205.666 110.015 206.032 109.633 206.301 109.139C206.57 108.633 206.704 108.041 206.704 107.364ZM217.978 102.976V111.817H216.51V110.51C216.23 110.962 215.837 111.317 215.332 111.575C214.837 111.822 214.288 111.946 213.686 111.946C212.998 111.946 212.379 111.806 211.831 111.526C211.282 111.236 210.847 110.806 210.524 110.236C210.212 109.666 210.056 108.972 210.056 108.154V102.976H211.508V107.961C211.508 108.832 211.729 109.504 212.17 109.977C212.611 110.44 213.213 110.671 213.977 110.671C214.762 110.671 215.38 110.429 215.832 109.945C216.284 109.461 216.51 108.757 216.51 107.832V102.976H217.978ZM219.908 107.364C219.908 106.46 220.091 105.67 220.456 104.992C220.822 104.304 221.322 103.772 221.957 103.395C222.602 103.019 223.323 102.83 224.119 102.83C224.807 102.83 225.447 102.992 226.039 103.314C226.63 103.626 227.082 104.04 227.394 104.557V99.878H228.878V111.817H227.394V110.155C227.103 110.682 226.673 111.118 226.103 111.462C225.533 111.795 224.866 111.962 224.103 111.962C223.317 111.962 222.602 111.768 221.957 111.381C221.322 110.994 220.822 110.451 220.456 109.752C220.091 109.052 219.908 108.257 219.908 107.364ZM227.394 107.38C227.394 106.713 227.259 106.132 226.99 105.638C226.722 105.143 226.356 104.766 225.893 104.508C225.442 104.239 224.942 104.105 224.393 104.105C223.844 104.105 223.344 104.234 222.893 104.492C222.441 104.75 222.081 105.127 221.812 105.621C221.543 106.116 221.408 106.697 221.408 107.364C221.408 108.041 221.543 108.633 221.812 109.139C222.081 109.633 222.441 110.015 222.893 110.284C223.344 110.542 223.844 110.671 224.393 110.671C224.942 110.671 225.442 110.542 225.893 110.284C226.356 110.015 226.722 109.633 226.99 109.139C227.259 108.633 227.394 108.047 227.394 107.38ZM235.005 102.83C235.769 102.83 236.436 102.997 237.006 103.331C237.586 103.664 238.017 104.083 238.296 104.589V102.976H239.781V112.01C239.781 112.817 239.609 113.532 239.264 114.156C238.92 114.791 238.425 115.285 237.78 115.64C237.145 115.995 236.403 116.173 235.554 116.173C234.392 116.173 233.424 115.898 232.65 115.35C231.875 114.801 231.418 114.054 231.278 113.107H232.73C232.892 113.645 233.225 114.075 233.731 114.398C234.236 114.731 234.844 114.898 235.554 114.898C236.36 114.898 237.016 114.645 237.522 114.14C238.038 113.634 238.296 112.924 238.296 112.01V110.155C238.006 110.671 237.576 111.101 237.006 111.446C236.436 111.79 235.769 111.962 235.005 111.962C234.22 111.962 233.505 111.768 232.859 111.381C232.225 110.994 231.725 110.451 231.359 109.752C230.993 109.052 230.811 108.257 230.811 107.364C230.811 106.46 230.993 105.67 231.359 104.992C231.725 104.304 232.225 103.772 232.859 103.395C233.505 103.019 234.22 102.83 235.005 102.83ZM238.296 107.38C238.296 106.713 238.162 106.132 237.893 105.638C237.624 105.143 237.258 104.766 236.796 104.508C236.344 104.239 235.844 104.105 235.296 104.105C234.747 104.105 234.247 104.234 233.795 104.492C233.343 104.75 232.983 105.127 232.714 105.621C232.445 106.116 232.311 106.697 232.311 107.364C232.311 108.041 232.445 108.633 232.714 109.139C232.983 109.633 233.343 110.015 233.795 110.284C234.247 110.542 234.747 110.671 235.296 110.671C235.844 110.671 236.344 110.542 236.796 110.284C237.258 110.015 237.624 109.633 237.893 109.139C238.162 108.633 238.296 108.047 238.296 107.38ZM250.328 107.057C250.328 107.337 250.312 107.633 250.28 107.945H243.213C243.267 108.816 243.563 109.499 244.101 109.994C244.649 110.478 245.311 110.72 246.085 110.72C246.72 110.72 247.247 110.574 247.666 110.284C248.096 109.983 248.398 109.585 248.57 109.09H250.151C249.914 109.94 249.441 110.634 248.731 111.171C248.021 111.698 247.139 111.962 246.085 111.962C245.246 111.962 244.493 111.774 243.827 111.397C243.17 111.021 242.654 110.488 242.278 109.8C241.901 109.101 241.713 108.294 241.713 107.38C241.713 106.466 241.896 105.665 242.262 104.976C242.627 104.288 243.138 103.761 243.794 103.395C244.461 103.019 245.225 102.83 246.085 102.83C246.924 102.83 247.666 103.013 248.312 103.379C248.957 103.745 249.452 104.25 249.796 104.895C250.151 105.53 250.328 106.251 250.328 107.057ZM248.812 106.751C248.812 106.192 248.688 105.713 248.441 105.315C248.193 104.906 247.854 104.6 247.424 104.395C247.005 104.18 246.537 104.073 246.021 104.073C245.279 104.073 244.644 104.309 244.117 104.783C243.601 105.256 243.305 105.912 243.23 106.751H248.812ZM254.057 104.186V109.397C254.057 109.827 254.148 110.133 254.331 110.316C254.514 110.488 254.831 110.574 255.283 110.574H256.364V111.817H255.041C254.224 111.817 253.611 111.628 253.202 111.252C252.793 110.876 252.589 110.257 252.589 109.397V104.186H251.443V102.976H252.589V100.749H254.057V102.976H256.364V104.186H254.057Z" fill="black"/>
<g filter="url(#filter1_d_95_1318)">
<rect x="50" y="139" width="257.674" height="212.202" rx="24" fill="white"/>
</g>
<path d="M86.635 189.83H88.3067C88.2532 190.468 88.0749 191.036 87.7718 191.536C87.4686 192.03 87.0429 192.42 86.4946 192.706C85.9463 192.991 85.2798 193.134 84.4952 193.134C83.8934 193.134 83.3518 193.027 82.8703 192.813C82.3889 192.594 81.9765 192.287 81.6332 191.89C81.29 191.489 81.027 191.005 80.8442 190.439C80.6659 189.873 80.5767 189.24 80.5767 188.54V187.731C80.5767 187.031 80.6681 186.398 80.8509 185.832C81.0381 185.266 81.3056 184.782 81.6533 184.381C82.001 183.975 82.4178 183.665 82.9037 183.451C83.3941 183.237 83.9447 183.13 84.5554 183.13C85.3311 183.13 85.9864 183.273 86.5213 183.558C87.0563 183.843 87.4709 184.238 87.7651 184.742C88.0638 185.245 88.2465 185.823 88.3134 186.474H86.6417C86.5971 186.055 86.499 185.696 86.3475 185.397C86.2004 185.098 85.9819 184.871 85.6922 184.715C85.4024 184.554 85.0235 184.474 84.5554 184.474C84.172 184.474 83.8377 184.546 83.5524 184.688C83.2671 184.831 83.0286 185.04 82.8369 185.317C82.6452 185.593 82.5003 185.934 82.4022 186.34C82.3086 186.741 82.2618 187.2 82.2618 187.717V188.54C82.2618 189.03 82.3042 189.476 82.3889 189.877C82.478 190.274 82.6117 190.615 82.7901 190.9C82.9728 191.186 83.2047 191.406 83.4855 191.562C83.7663 191.718 84.1029 191.796 84.4952 191.796C84.9722 191.796 85.3578 191.721 85.652 191.569C85.9507 191.417 86.1758 191.197 86.3274 190.907C86.4834 190.613 86.586 190.254 86.635 189.83ZM97.5948 187.864V188.399C97.5948 189.135 97.4989 189.795 97.3072 190.379C97.1156 190.963 96.8414 191.46 96.4848 191.87C96.1326 192.28 95.7091 192.594 95.2143 192.813C94.7194 193.027 94.1711 193.134 93.5693 193.134C92.9719 193.134 92.4258 193.027 91.931 192.813C91.4406 192.594 91.0149 192.28 90.6538 191.87C90.2927 191.46 90.0119 190.963 89.8113 190.379C89.6151 189.795 89.517 189.135 89.517 188.399V187.864C89.517 187.129 89.6151 186.471 89.8113 185.892C90.0074 185.308 90.2838 184.811 90.6404 184.401C91.0015 183.986 91.4273 183.672 91.9176 183.458C92.4125 183.239 92.9586 183.13 93.5559 183.13C94.1577 183.13 94.7061 183.239 95.2009 183.458C95.6957 183.672 96.1214 183.986 96.4781 184.401C96.8347 184.811 97.1089 185.308 97.3006 185.892C97.4967 186.471 97.5948 187.129 97.5948 187.864ZM95.9164 188.399V187.851C95.9164 187.307 95.8629 186.828 95.7559 186.413C95.6534 185.994 95.4996 185.644 95.2945 185.364C95.0939 185.078 94.8465 184.864 94.5523 184.722C94.258 184.575 93.9259 184.501 93.5559 184.501C93.1859 184.501 92.856 184.575 92.5663 184.722C92.2765 184.864 92.0291 185.078 91.824 185.364C91.6234 185.644 91.4696 185.994 91.3626 186.413C91.2556 186.828 91.2021 187.307 91.2021 187.851V188.399C91.2021 188.943 91.2556 189.425 91.3626 189.844C91.4696 190.263 91.6256 190.617 91.8307 190.907C92.0402 191.192 92.2899 191.409 92.5796 191.556C92.8694 191.698 93.1993 191.77 93.5693 191.77C93.9438 191.77 94.2759 191.698 94.5656 191.556C94.8554 191.409 95.1006 191.192 95.3012 190.907C95.5018 190.617 95.6534 190.263 95.7559 189.844C95.8629 189.425 95.9164 188.943 95.9164 188.399ZM104.395 190.492C104.395 190.292 104.364 190.114 104.302 189.957C104.244 189.801 104.139 189.659 103.987 189.53C103.836 189.4 103.622 189.275 103.345 189.155C103.074 189.03 102.726 188.903 102.302 188.774C101.839 188.631 101.411 188.473 101.018 188.299C100.631 188.121 100.292 187.916 100.002 187.684C99.7123 187.448 99.4872 187.178 99.3267 186.875C99.1662 186.567 99.0859 186.213 99.0859 185.812C99.0859 185.415 99.1684 185.054 99.3334 184.728C99.5028 184.403 99.7413 184.122 100.049 183.886C100.361 183.645 100.729 183.46 101.152 183.331C101.576 183.197 102.044 183.13 102.556 183.13C103.279 183.13 103.9 183.264 104.422 183.531C104.948 183.799 105.352 184.158 105.632 184.608C105.918 185.058 106.06 185.555 106.06 186.099H104.395C104.395 185.778 104.326 185.495 104.188 185.25C104.054 185 103.849 184.804 103.573 184.661C103.301 184.519 102.955 184.448 102.536 184.448C102.14 184.448 101.81 184.508 101.547 184.628C101.284 184.748 101.088 184.911 100.958 185.116C100.829 185.321 100.764 185.553 100.764 185.812C100.764 185.994 100.807 186.162 100.891 186.313C100.976 186.46 101.105 186.598 101.279 186.728C101.453 186.853 101.672 186.971 101.935 187.082C102.198 187.194 102.507 187.301 102.864 187.403C103.403 187.564 103.874 187.742 104.275 187.938C104.676 188.13 105.011 188.348 105.278 188.593C105.545 188.839 105.746 189.117 105.88 189.429C106.014 189.737 106.08 190.087 106.08 190.479C106.08 190.889 105.998 191.259 105.833 191.589C105.668 191.914 105.432 192.193 105.124 192.425C104.821 192.652 104.455 192.828 104.028 192.953C103.604 193.074 103.131 193.134 102.61 193.134C102.142 193.134 101.68 193.071 101.226 192.947C100.775 192.822 100.365 192.632 99.9954 192.378C99.6254 192.12 99.3311 191.799 99.1127 191.415C98.8943 191.027 98.785 190.575 98.785 190.058H100.463C100.463 190.374 100.517 190.644 100.624 190.867C100.735 191.09 100.889 191.273 101.085 191.415C101.281 191.553 101.509 191.656 101.767 191.723C102.03 191.79 102.311 191.823 102.61 191.823C103.002 191.823 103.33 191.767 103.593 191.656C103.86 191.544 104.061 191.388 104.195 191.188C104.328 190.987 104.395 190.755 104.395 190.492ZM111.57 183.264V193H109.905V183.264H111.57ZM114.626 183.264V184.601H106.876V183.264H114.626ZM125.372 191.669V193H120.203V191.669H125.372ZM120.678 183.264V193H118.999V183.264H120.678ZM124.697 187.33V188.64H120.203V187.33H124.697ZM125.339 183.264V184.601H120.203V183.264H125.339ZM128.421 183.264V193H126.743V183.264H128.421ZM132.393 187.523V188.854H127.993V187.523H132.393ZM132.948 183.264V184.601H127.993V183.264H132.948ZM135.964 183.264V193H134.286V183.264H135.964ZM139.936 187.523V188.854H135.536V187.523H139.936ZM140.491 183.264V184.601H135.536V183.264H140.491ZM143.62 183.264V193H141.942V183.264H143.62ZM151.457 189.83H153.129C153.076 190.468 152.897 191.036 152.594 191.536C152.291 192.03 151.865 192.42 151.317 192.706C150.769 192.991 150.102 193.134 149.318 193.134C148.716 193.134 148.174 193.027 147.693 192.813C147.211 192.594 146.799 192.287 146.456 191.89C146.112 191.489 145.849 191.005 145.667 190.439C145.488 189.873 145.399 189.24 145.399 188.54V187.731C145.399 187.031 145.491 186.398 145.673 185.832C145.861 185.266 146.128 184.782 146.476 184.381C146.823 183.975 147.24 183.665 147.726 183.451C148.217 183.237 148.767 183.13 149.378 183.13C150.154 183.13 150.809 183.273 151.344 183.558C151.879 183.843 152.293 184.238 152.588 184.742C152.886 185.245 153.069 185.823 153.136 186.474H151.464C151.42 186.055 151.321 185.696 151.17 185.397C151.023 185.098 150.804 184.871 150.515 184.715C150.225 184.554 149.846 184.474 149.378 184.474C148.994 184.474 148.66 184.546 148.375 184.688C148.09 184.831 147.851 185.04 147.659 185.317C147.468 185.593 147.323 185.934 147.225 186.34C147.131 186.741 147.084 187.2 147.084 187.717V188.54C147.084 189.03 147.127 189.476 147.211 189.877C147.3 190.274 147.434 190.615 147.613 190.9C147.795 191.186 148.027 191.406 148.308 191.562C148.589 191.718 148.925 191.796 149.318 191.796C149.795 191.796 150.18 191.721 150.474 191.569C150.773 191.417 150.998 191.197 151.15 190.907C151.306 190.613 151.408 190.254 151.457 189.83ZM156.446 183.264V193H154.767V183.264H156.446ZM164.905 191.669V193H159.736V191.669H164.905ZM160.211 183.264V193H158.532V183.264H160.211ZM164.229 187.33V188.64H159.736V187.33H164.229ZM164.871 183.264V184.601H159.736V183.264H164.871ZM173.999 183.264V193H172.32L167.954 186.026V193H166.276V183.264H167.954L172.334 190.252V183.264H173.999ZM179.803 183.264V193H178.138V183.264H179.803ZM182.859 183.264V184.601H175.109V183.264H182.859Z" fill="black"/>
<path d="M79.8947 208.53H279.609" stroke="#EBEBFA" stroke-width="1.14122"/>
<path d="M79.8947 242.767H279.609" stroke="#EBEBFA" stroke-width="1.14122"/>
<path d="M79.8947 277.003H279.609" stroke="#EBEBFA" stroke-width="1.14122"/>
<path d="M79.8947 311.24H279.609" stroke="#EBEBFA" stroke-width="1.14122"/>
<path d="M80.8109 310.091C118.84 310.633 211.922 304.881 280.013 277.528" stroke="#AC4933" stroke-width="1.81093" stroke-linejoin="round"/>
<path d="M79.0001 291.983C117.03 292.989 222.969 270.863 278.202 201.469" stroke="#01AFD1" stroke-width="2" stroke-linejoin="round" stroke-dasharray="4.56 4.56"/>
<defs>
<filter id="filter0_d_95_1318" x="0.00012207" y="0.613676" width="357.212" height="394.122" filterUnits="userSpaceOnUse" color-interpolation-filters="sRGB">
<feFlood flood-opacity="0" result="BackgroundImageFix"/>
<feColorMatrix in="SourceAlpha" type="matrix" values="0 0 0 0 0 0 0 0 0 0 0 0 0 0 0 0 0 0 127 0" result="hardAlpha"/>
<feOffset dy="4.61368"/>
<feGaussianBlur stdDeviation="25"/>
<feComposite in2="hardAlpha" operator="out"/>
<feColorMatrix type="matrix" values="0 0 0 0 0 0 0 0 0 0 0 0 0 0 0 0 0 0 0.04 0"/>
<feBlend mode="normal" in2="BackgroundImageFix" result="effect1_dropShadow_95_1318"/>
<feBlend mode="normal" in="SourceGraphic" in2="effect1_dropShadow_95_1318" result="shape"/>
</filter>
<filter id="filter1_d_95_1318" x="3.33786e-05" y="93.6137" width="357.674" height="312.202" filterUnits="userSpaceOnUse" color-interpolation-filters="sRGB">
<feFlood flood-opacity="0" result="BackgroundImageFix"/>
<feColorMatrix in="SourceAlpha" type="matrix" values="0 0 0 0 0 0 0 0 0 0 0 0 0 0 0 0 0 0 127 0" result="hardAlpha"/>
<feOffset dy="4.61368"/>
<feGaussianBlur stdDeviation="25"/>
<feComposite in2="hardAlpha" operator="out"/>
<feColorMatrix type="matrix" values="0 0 0 0 0 0 0 0 0 0 0 0 0 0 0 0 0 0 0.04 0"/>
<feBlend mode="normal" in2="BackgroundImageFix" result="effect1_dropShadow_95_1318"/>
<feBlend mode="normal" in="SourceGraphic" in2="effect1_dropShadow_95_1318" result="shape"/>
</filter>
</defs>
</svg>
