<svg width="139" height="125" viewBox="0 0 139 125" fill="none" xmlns="http://www.w3.org/2000/svg">
<path d="M12.5 56.1457V27.9971H23.3513C25.2996 27.9971 26.9302 28.295 28.2432 28.8905C29.5647 29.4861 30.5558 30.3197 31.2165 31.3919C31.8857 32.4641 32.2203 33.7057 32.2203 35.1166C32.2203 36.1888 32.0128 37.1461 31.5977 37.9892C31.1826 38.8231 30.6108 39.515 29.8824 40.0647C29.1539 40.6144 28.311 40.9996 27.3538 41.2192V41.4943C28.4041 41.5494 29.3741 41.856 30.2635 42.4148C31.1615 42.9742 31.8815 43.7531 32.4236 44.7515C32.9657 45.7409 33.2368 46.9141 33.2368 48.27C33.2368 49.7819 32.881 51.1335 32.1695 52.3249C31.458 53.5066 30.4287 54.4415 29.0819 55.1285C27.735 55.8064 26.1001 56.1457 24.1771 56.1457H12.5ZM18.7897 50.6618H22.6778C24.0416 50.6618 25.0455 50.3824 25.6892 49.823C26.3415 49.2642 26.6676 48.4853 26.6676 47.4868C26.6676 46.763 26.5109 46.1401 26.1975 45.6175C25.8841 45.086 25.4393 44.6784 24.8633 44.3941C24.2873 44.1008 23.5969 43.9545 22.7922 43.9545H18.7897V50.6618ZM18.7897 39.57H22.2712C22.9573 39.57 23.5672 39.446 24.1009 39.1987C24.6346 38.9513 25.0497 38.5939 25.3461 38.1271C25.6511 37.6596 25.8036 37.0959 25.8036 36.4362C25.8036 35.4921 25.4944 34.7501 24.876 34.2095C24.2577 33.6688 23.4233 33.3985 22.3729 33.3985H18.7897V39.57ZM66.1895 42.0713C66.1895 45.1682 65.6388 47.7934 64.5379 49.947C63.4365 52.1005 61.9455 53.7358 60.0653 54.854C58.1929 55.9715 56.0924 56.5303 53.7627 56.5303C51.4247 56.5303 49.3197 55.9673 47.4479 54.8401C45.5756 53.7128 44.089 52.0775 42.9876 49.9331C41.8951 47.7801 41.3483 45.1591 41.3483 42.0713C41.3483 38.9743 41.8951 36.3491 42.9876 34.1961C44.089 32.0426 45.5756 30.4068 47.4479 29.2891C49.3197 28.1712 51.4247 27.6123 53.7627 27.6123C56.0924 27.6123 58.1929 28.1712 60.0653 29.2891C61.9455 30.4068 63.4365 32.0426 64.5379 34.1961C65.6388 36.3491 66.1895 38.9743 66.1895 42.0713ZM59.76 42.0713C59.76 40.2389 59.5185 38.6901 59.036 37.4255C58.5613 36.1616 57.8754 35.2037 56.9775 34.553C56.088 33.9028 55.0162 33.5775 53.7627 33.5775C52.5177 33.5775 51.4459 33.9028 50.548 34.553C49.6501 35.2037 48.9597 36.1616 48.4766 37.4255C48.0025 38.6901 47.7655 40.2389 47.7655 42.0713C47.7655 43.9043 48.0025 45.4524 48.4766 46.717C48.9597 47.9815 49.6501 48.9389 50.548 49.5896C51.4459 50.2403 52.5177 50.5656 53.7627 50.5656C55.0162 50.5656 56.088 50.2403 56.9775 49.5896C57.8754 48.9389 58.5613 47.9815 59.036 46.717C59.5185 45.4524 59.76 43.9043 59.76 42.0713ZM75.2287 56.1457V27.9971H85.9787C87.9271 27.9971 89.6083 28.3774 91.0227 29.1379C92.4462 29.8893 93.5431 30.9704 94.3141 32.3819C95.085 33.7837 95.4703 35.4468 95.4703 37.3711C95.4703 39.3227 95.0761 40.9809 94.2883 42.3464C93.5006 43.7023 92.3824 44.7376 90.9339 45.4524C89.4853 46.1582 87.77 46.5108 85.7881 46.5108H78.9902V41.1508H84.619C85.5678 41.1508 86.36 41.0178 86.9951 40.7517C87.6386 40.4771 88.1261 40.0647 88.4566 39.515C88.7864 38.9562 88.9519 38.2414 88.9519 37.3711C88.9519 36.5003 88.7864 35.7812 88.4566 35.2127C88.1261 34.6358 87.6386 34.2052 86.9951 33.921C86.3511 33.6277 85.5594 33.4813 84.619 33.4813H81.5184V56.1457H75.2287ZM89.8794 43.2808L96.3597 56.1457H89.4981L83.1453 43.2808H89.8794ZM126.434 27.9971V56.1457H121.098L110.742 39.8996H110.577V56.1457H104.287V27.9971H109.7L119.941 44.2157H120.158V27.9971H126.434Z" fill="white"/>
<path d="M126.434 64.793H14.5713V97.8421H126.434V64.793Z" fill="#69E6FF"/>
<path d="M126.434 64.793H14.5713V97.8421H126.434V64.793Z" fill="url(#paint0_linear_167_121)"/>
<path d="M22.7695 93.408H16.6436L24.6005 71.2918H32.1889L40.146 93.408H34.0198L28.4811 76.8641H28.2968L22.7695 93.408ZM21.952 84.7041H34.7568V88.7643H21.952V84.7041ZM59.9715 78.5162C59.8406 78.0627 59.6489 77.6631 59.3956 77.3176C59.1423 76.9648 58.8315 76.6659 58.4625 76.4216C58.0941 76.1767 57.672 75.9932 57.1962 75.8705C56.7204 75.741 56.1982 75.676 55.6302 75.676C54.4863 75.676 53.4957 75.9356 52.6593 76.4536C51.8302 76.9721 51.1889 77.7282 50.736 78.7217C50.2832 79.7079 50.0568 80.9065 50.0568 82.3174C50.0568 83.7357 50.2754 84.9452 50.7131 85.9461C51.1509 86.9465 51.7838 87.7099 52.6129 88.2353C53.442 88.7611 54.4478 89.0238 55.6302 89.0238C56.674 89.0238 57.5568 88.8655 58.2786 88.5488C59.0076 88.2248 59.5605 87.7676 59.9368 87.1772C60.313 86.5868 60.5009 85.8921 60.5009 85.0931L61.5604 85.2116H55.8259V81.3134H65.9938V84.2395C65.9938 86.2198 65.5443 87.9149 64.6465 89.3258C63.7559 90.7372 62.5276 91.8205 60.9616 92.5765C59.4034 93.3326 57.6105 93.7106 55.5838 93.7106C53.3346 93.7106 51.3577 93.2534 49.6537 92.339C47.9496 91.4246 46.6212 90.1217 45.6697 88.4298C44.7176 86.7305 44.2418 84.7151 44.2418 82.3824C44.2418 80.5683 44.5297 78.9592 45.105 77.5551C45.6809 76.1442 46.4831 74.9493 47.5119 73.9699C48.5484 72.9911 49.7459 72.2492 51.1045 71.7453C52.4709 71.2414 53.9412 70.9893 55.515 70.9893C56.8814 70.9893 58.1517 71.1733 59.3263 71.5403C60.5087 71.9073 61.5525 72.4259 62.4588 73.0954C63.3723 73.7649 64.1131 74.5603 64.6811 75.482C65.2491 76.4032 65.6019 77.4146 65.7406 78.5162H59.9715ZM77.9715 71.2918V93.408H72.2717V71.2918H77.9715ZM84.468 93.408V71.2918H90.1684V89.0668H99.979V93.408H84.468ZM105.848 93.408V71.2918H122.292V75.633H111.548V80.1688H121.451V84.5205H111.548V89.0668H122.292V93.408H105.848Z" fill="#090909"/>
<defs>
<linearGradient id="paint0_linear_167_121" x1="14.5713" y1="81.3176" x2="121.783" y2="81.3176" gradientUnits="userSpaceOnUse">
<stop stop-color="#69E6FF"/>
<stop offset="1" stop-color="#F5FF9F"/>
</linearGradient>
</defs>
</svg>
