<svg width="156" height="98" viewBox="0 0 156 98" fill="none" xmlns="http://www.w3.org/2000/svg">
<path d="M-0.0078125 40.044V1.39553H14.8249C17.488 1.39553 19.717 1.80447 21.5117 2.62219C23.318 3.43999 24.6727 4.58444 25.5759 6.05663C26.4906 7.52882 26.948 9.2335 26.948 11.1707C26.948 12.6429 26.6643 13.9573 26.097 15.1148C25.5296 16.2598 24.748 17.2097 23.7522 17.9645C22.7565 18.7193 21.6043 19.2482 20.2959 19.5496V19.9274C21.7317 20.003 23.0575 20.424 24.2733 21.1912C25.5007 21.9593 26.4848 23.0287 27.2259 24.3996C27.9669 25.7581 28.3375 27.3689 28.3375 29.2305C28.3375 31.3064 27.8512 33.1622 26.8786 34.7979C25.9059 36.4204 24.4991 37.7041 22.658 38.6474C20.817 39.5782 18.5822 40.044 15.9538 40.044H-0.0078125ZM8.58958 32.5145H13.9043C15.7685 32.5145 17.1407 32.1309 18.0206 31.3628C18.9123 30.5956 19.358 29.5261 19.358 28.1552C19.358 27.1613 19.1438 26.3061 18.7154 25.5887C18.287 24.8588 17.679 24.2992 16.8917 23.9089C16.1043 23.5062 15.1607 23.3052 14.0607 23.3052H8.58958V32.5145ZM8.58958 17.2853H13.3485C14.2864 17.2853 15.1201 17.1151 15.8496 16.7755C16.579 16.4359 17.1464 15.9451 17.5517 15.3041C17.9685 14.6623 18.1769 13.8884 18.1769 12.9825C18.1769 11.6863 17.7543 10.6675 16.909 9.92517C16.0638 9.18285 14.9233 8.81169 13.4875 8.81169H8.58958V17.2853ZM73.3806 20.7196C73.3806 24.9717 72.6279 28.5762 71.1232 31.5331C69.6177 34.4899 67.5795 36.7351 65.0095 38.2704C62.4501 39.8049 59.579 40.5721 56.3945 40.5721C53.1986 40.5721 50.3213 39.7991 47.7627 38.2513C45.2034 36.7036 43.1713 34.4583 41.6658 31.514C40.1726 28.558 39.4252 24.9593 39.4252 20.7196C39.4252 16.4674 40.1726 12.8629 41.6658 9.90691C43.1713 6.95008 45.2034 4.70401 47.7627 3.16946C50.3213 1.63458 53.1986 0.867188 56.3945 0.867188C59.579 0.867188 62.4501 1.63458 65.0095 3.16946C67.5795 4.70401 69.6177 6.95008 71.1232 9.90691C72.6279 12.8629 73.3806 16.4674 73.3806 20.7196ZM64.5922 20.7196C64.5922 18.2036 64.2621 16.0771 63.6026 14.3409C62.9537 12.6055 62.016 11.2902 60.7887 10.3968C59.5729 9.50419 58.1079 9.05747 56.3945 9.05747C54.6926 9.05747 53.2276 9.50419 52.0003 10.3968C50.7729 11.2902 49.8292 12.6055 49.1689 14.3409C48.5208 16.0771 48.1968 18.2036 48.1968 20.7196C48.1968 23.2363 48.5208 25.362 49.1689 27.0982C49.8292 28.8345 50.7729 30.1489 52.0003 31.0423C53.2276 31.9358 54.6926 32.3825 56.3945 32.3825C58.1079 32.3825 59.5729 31.9358 60.7887 31.0423C62.016 30.1489 62.9537 28.8345 63.6026 27.0982C64.2621 25.362 64.5922 23.2363 64.5922 20.7196ZM85.7364 40.044V1.39553H100.431C103.094 1.39553 105.392 1.91765 107.325 2.96188C109.271 3.99349 110.77 5.47789 111.824 7.4159C112.878 9.34062 113.405 11.624 113.405 14.2662C113.405 16.9457 112.866 19.2225 111.789 21.0974C110.712 22.959 109.184 24.3805 107.204 25.362C105.224 26.331 102.879 26.8151 100.17 26.8151H90.8781V19.4558H98.5722C99.869 19.4558 100.952 19.2731 101.82 18.9078C102.7 18.5308 103.366 17.9645 103.818 17.2097C104.269 16.4425 104.495 15.461 104.495 14.2662C104.495 13.0705 104.269 12.0832 103.818 11.3027C103.366 10.5106 102.7 9.91936 101.82 9.5291C100.94 9.12639 99.8576 8.92545 98.5722 8.92545H94.3338V40.044H85.7364ZM105.763 22.3802L114.621 40.044H105.241L96.5577 22.3802H105.763ZM155.73 1.39553V40.044H148.435L134.28 17.7378H134.054V40.044H125.456V1.39553H132.855L146.854 23.6639H147.15V1.39553H155.73Z" fill="black"/>
<path d="M155.73 51.9141H2.82422V97.2911H155.73V51.9141Z" fill="url(#paint0_linear_95_1411)"/>
<path d="M14.0299 91.2032H5.65625L16.5326 60.8372H26.9053L37.7819 91.2032H29.408L21.837 68.4881H21.5852L14.0299 91.2032ZM12.9124 79.2525H30.4153V84.8273H12.9124V79.2525ZM64.8814 70.7565C64.7026 70.1338 64.4405 69.5852 64.0943 69.1108C63.7481 68.6264 63.3232 68.216 62.8189 67.8806C62.3152 67.5444 61.7383 67.2924 61.0879 67.124C60.4376 66.9461 59.7238 66.8569 58.9474 66.8569C57.3838 66.8569 56.0296 67.2132 54.8864 67.9245C53.7531 68.6364 52.8765 69.6745 52.2575 71.0387C51.6385 72.3928 51.329 74.0384 51.329 75.9756C51.329 77.9229 51.6278 79.5836 52.2262 80.9579C52.8245 82.3314 53.6896 83.3796 54.823 84.1009C55.9563 84.8229 57.3311 85.1836 58.9474 85.1836C60.3741 85.1836 61.5808 84.9662 62.5674 84.5314C63.564 84.0865 64.3197 83.4588 64.8341 82.6482C65.3484 81.8376 65.6051 80.8838 65.6051 79.7867L67.0533 79.9493H59.2149V74.597H73.1135V78.6147C73.1135 81.3337 72.4991 83.661 71.2718 85.5982C70.0544 87.5362 68.3754 89.0234 66.2349 90.0615C64.105 91.0996 61.6542 91.6186 58.8839 91.6186C55.8095 91.6186 53.1073 90.9909 50.778 89.7354C48.4487 88.4799 46.6329 86.691 45.3323 84.368C44.0308 82.0348 43.3805 79.2676 43.3805 76.0649C43.3805 73.5741 43.7741 71.3648 44.5604 69.4369C45.3476 67.4997 46.4442 65.8591 47.8503 64.5144C49.2672 63.1704 50.9041 62.1517 52.7611 61.4599C54.6288 60.7681 56.6387 60.4219 58.7899 60.4219C60.6577 60.4219 62.3939 60.6746 63.9995 61.1785C65.6158 61.6824 67.0426 62.3943 68.2814 63.3136C69.5301 64.2329 70.5427 65.325 71.3191 66.5905C72.0956 67.8554 72.5778 69.244 72.7673 70.7565H64.8814ZM89.4859 60.8372V91.2032H81.6948V60.8372H89.4859ZM98.3659 91.2032V60.8372H106.158V85.2426H119.568V91.2032H98.3659ZM127.591 91.2032V60.8372H150.068V66.7979H135.382V73.0255H148.918V79.0005H135.382V85.2426H150.068V91.2032H127.591Z" fill="#090909"/>
<defs>
<linearGradient id="paint0_linear_95_1411" x1="2.82422" y1="74.6026" x2="149.373" y2="74.6026" gradientUnits="userSpaceOnUse">
<stop stop-color="#69E6FF"/>
<stop offset="1" stop-color="#F5FF9F"/>
</linearGradient>
</defs>
</svg>
