<svg width="13" height="11" viewBox="0 0 13 11" fill="none" xmlns="http://www.w3.org/2000/svg">
<path d="M12.099 1.59869C11.6484 1.82439 11.1978 1.89962 10.672 1.97485C11.1978 1.67393 11.5733 1.22253 11.7235 0.620679C11.2729 0.921606 10.7471 1.07207 10.1463 1.22253C9.6957 0.771142 9.01977 0.470215 8.34385 0.470215C7.0671 0.470215 5.94055 1.59869 5.94055 2.95287C5.94055 3.17856 5.94055 3.32903 6.01566 3.47949C3.98787 3.40426 2.1103 2.42624 0.908652 0.921606C0.683343 1.29777 0.60824 1.67393 0.60824 2.20055C0.60824 3.0281 1.05886 3.78042 1.73479 4.23181C1.35927 4.23181 0.983755 4.08135 0.60824 3.93088C0.60824 5.13459 1.43437 6.11261 2.56092 6.3383C2.33561 6.41353 2.1103 6.41353 1.88499 6.41353C1.73479 6.41353 1.58458 6.41353 1.43437 6.3383C1.73479 7.31632 2.63602 8.06864 3.76257 8.06864C2.93643 8.74572 1.88499 9.12188 0.683343 9.12188C0.458034 9.12188 0.307828 9.12188 0.0825195 9.12188C1.20906 9.79897 2.48582 10.2504 3.83767 10.2504C8.34385 10.2504 10.8222 6.48877 10.8222 3.25379C10.8222 3.17856 10.8222 3.0281 10.8222 2.95287C11.348 2.57671 11.7986 2.12532 12.099 1.59869Z" fill="#1E2532"/>
</svg>
