<svg width="17" height="16" viewBox="0 0 17 16" fill="none" xmlns="http://www.w3.org/2000/svg">
<g clip-path="url(#clip0_167_143)">
<path d="M11.651 2.2124H5.34231C3.60023 2.2124 2.18799 3.61652 2.18799 5.34859V11.621C2.18799 13.353 3.60023 14.7571 5.34231 14.7571H11.651C13.3931 14.7571 14.8053 13.353 14.8053 11.621V5.34859C14.8053 3.61652 13.3931 2.2124 11.651 2.2124Z" stroke="#1E2532" stroke-width="1.6827" stroke-linecap="round" stroke-linejoin="round"/>
<path d="M11.0201 8.08771C11.098 8.60972 11.0083 9.14285 10.7638 9.61127C10.5194 10.0797 10.1326 10.4595 9.65848 10.6968C9.18437 10.9341 8.64709 11.0166 8.12305 10.9328C7.59901 10.849 7.11491 10.603 6.7396 10.2298C6.36428 9.85666 6.11686 9.37535 6.03254 8.85432C5.94822 8.3333 6.03128 7.79911 6.26991 7.32773C6.50854 6.85635 6.89059 6.47178 7.36172 6.22873C7.83285 5.98567 8.36907 5.89651 8.8941 5.97392C9.42966 6.05288 9.92547 6.301 10.3083 6.68163C10.6911 7.06227 10.9407 7.55523 11.0201 8.08771Z" stroke="#1E2532" stroke-width="1.6827" stroke-linecap="round" stroke-linejoin="round"/>
<ellipse cx="11.9704" cy="5.02826" rx="0.94652" ry="0.940855" fill="#1E2532"/>
</g>
<defs>
<clipPath id="clip0_167_143">
<rect width="15.1408" height="15.0537" fill="white" transform="translate(0.92627 0.95459)"/>
</clipPath>
</defs>
</svg>
