<svg width="358" height="407" viewBox="0 0 358 407" fill="none" xmlns="http://www.w3.org/2000/svg">
<g filter="url(#filter0_d_95_1256)">
<rect x="50" y="46" width="257.212" height="294.122" rx="24" fill="#EEFF55"/>
</g>
<g filter="url(#filter1_d_95_1256)">
<rect x="50.3261" y="139.454" width="257.674" height="212.202" rx="24" fill="white"/>
</g>
<rect x="73.791" y="197" width="135" height="8" rx="4" fill="#D0D0CB" fill-opacity="0.7"/>
<rect x="73.791" y="213" width="205" height="8" rx="4" fill="#D0D0CB" fill-opacity="0.7"/>
<rect x="73.791" y="229" width="171" height="8" rx="4" fill="#D0D0CB" fill-opacity="0.7"/>
<g opacity="0.5">
<circle cx="79.291" cy="250.5" r="5.5" fill="#D0D0CB" fill-opacity="0.7"/>
<circle cx="95.291" cy="250.5" r="5.5" fill="#D0D0CB" fill-opacity="0.7"/>
<circle cx="111.291" cy="250.5" r="5.5" fill="#D0D0CB" fill-opacity="0.7"/>
</g>
<g filter="url(#filter2_d_95_1256)">
<rect x="166.532" y="85.561" width="11.789" height="116.206" rx="5.89451" transform="rotate(-90 166.532 85.561)" fill="white"/>
</g>
<g filter="url(#filter3_d_95_1256)">
<rect x="166.532" y="85.561" width="11.789" height="50.5243" rx="5.89451" transform="rotate(-90 166.532 85.561)" fill="#01AFD1"/>
</g>
<circle cx="212.003" cy="78.8246" r="9.52816" fill="white" stroke="#01AFD1" stroke-width="1.15342"/>
<g filter="url(#filter4_d_95_1256)">
<rect x="166.532" y="115.875" width="11.789" height="116.206" rx="5.89451" transform="rotate(-90 166.532 115.875)" fill="white"/>
</g>
<g filter="url(#filter5_d_95_1256)">
<rect x="166.532" y="115.875" width="11.789" height="82.5231" rx="5.89451" transform="rotate(-90 166.532 115.875)" fill="#01AFD1"/>
</g>
<path d="M72.6693 95.1533L80.3197 80.0147V79.8885H71.4077V76.6986H84.3567V79.9336L76.6972 95.1533H72.6693ZM93.5435 95.4056C92.1558 95.4056 90.9212 95.1804 89.8399 94.7298C88.7646 94.2732 87.9205 93.6515 87.3078 92.8645C86.695 92.0775 86.3887 91.1854 86.3887 90.1882C86.3887 89.4193 86.5629 88.7134 86.9113 88.0706C87.2657 87.4218 87.7463 86.8841 88.3531 86.4576C88.9598 86.0251 89.6387 85.7487 90.3896 85.6286V85.5024C89.4044 85.3042 88.6054 84.8266 87.9926 84.0697C87.3799 83.3067 87.0735 82.4207 87.0735 81.4114C87.0735 80.4562 87.3528 79.6062 87.9115 78.8613C88.4702 78.1104 89.2362 77.5216 90.2094 77.0951C91.1886 76.6626 92.2999 76.4463 93.5435 76.4463C94.787 76.4463 95.8954 76.6626 96.8686 77.0951C97.8478 77.5276 98.6167 78.1194 99.1754 78.8703C99.7341 79.6152 100.016 80.4622 100.022 81.4114C100.016 82.4267 99.704 83.3128 99.0853 84.0697C98.4665 84.8266 97.6735 85.3042 96.7064 85.5024V85.6286C97.4453 85.7487 98.1151 86.0251 98.7158 86.4576C99.3226 86.8841 99.8032 87.4218 100.158 88.0706C100.518 88.7134 100.701 89.4193 100.707 90.1882C100.701 91.1854 100.392 92.0775 99.7791 92.8645C99.1664 93.6515 98.3193 94.2732 97.238 94.7298C96.1627 95.1804 94.9312 95.4056 93.5435 95.4056ZM93.5435 92.5401C94.1622 92.5401 94.7029 92.429 95.1655 92.2067C95.628 91.9784 95.9885 91.666 96.2468 91.2695C96.5111 90.867 96.6433 90.4045 96.6433 89.8818C96.6433 89.3472 96.5081 88.8756 96.2378 88.4671C95.9674 88.0526 95.601 87.7282 95.1384 87.4939C94.6759 87.2536 94.1442 87.1335 93.5435 87.1335C92.9487 87.1335 92.4171 87.2536 91.9485 87.4939C91.4799 87.7282 91.1105 88.0526 90.8401 88.4671C90.5758 88.8756 90.4436 89.3472 90.4436 89.8818C90.4436 90.4045 90.5728 90.867 90.8311 91.2695C91.0894 91.666 91.4529 91.9784 91.9215 92.2067C92.39 92.429 92.9307 92.5401 93.5435 92.5401ZM93.5435 84.295C94.0601 84.295 94.5197 84.1898 94.9222 83.9796C95.3247 83.7693 95.64 83.478 95.8683 83.1055C96.0966 82.733 96.2107 82.3035 96.2107 81.8169C96.2107 81.3363 96.0966 80.9158 95.8683 80.5554C95.64 80.1889 95.3277 79.9036 94.9312 79.6993C94.5347 79.489 94.0721 79.3839 93.5435 79.3839C93.0208 79.3839 92.5583 79.489 92.1558 79.6993C91.7533 79.9036 91.4379 80.1889 91.2096 80.5554C90.9873 80.9158 90.8762 81.3363 90.8762 81.8169C90.8762 82.3035 90.9903 82.733 91.2186 83.1055C91.4469 83.478 91.7623 83.7693 92.1648 83.9796C92.5673 84.1898 93.0268 84.295 93.5435 84.295ZM113.537 91.6931V90.7199C113.537 89.981 113.693 89.3021 114.005 88.6834C114.324 88.0586 114.783 87.56 115.384 87.1875C115.991 86.8091 116.73 86.6198 117.601 86.6198C118.484 86.6198 119.226 86.8061 119.827 87.1785C120.433 87.551 120.89 88.0496 121.196 88.6743C121.509 89.2931 121.665 89.9749 121.665 90.7199V91.6931C121.665 92.432 121.509 93.1138 121.196 93.7386C120.884 94.3573 120.424 94.853 119.818 95.2254C119.211 95.6039 118.472 95.7931 117.601 95.7931C116.718 95.7931 115.976 95.6039 115.375 95.2254C114.774 94.853 114.318 94.3573 114.005 93.7386C113.693 93.1138 113.537 92.432 113.537 91.6931ZM116.159 90.7199V91.6931C116.159 92.1196 116.261 92.5221 116.465 92.9005C116.676 93.279 117.054 93.4682 117.601 93.4682C118.147 93.4682 118.52 93.282 118.718 92.9096C118.922 92.5371 119.025 92.1316 119.025 91.6931V90.7199C119.025 90.2813 118.928 89.8728 118.736 89.4944C118.544 89.1159 118.166 88.9267 117.601 88.9267C117.06 88.9267 116.685 89.1159 116.474 89.4944C116.264 89.8728 116.159 90.2813 116.159 90.7199ZM104.066 81.1321V80.1589C104.066 79.414 104.225 78.7321 104.544 78.1134C104.862 77.4886 105.322 76.99 105.922 76.6175C106.529 76.2451 107.262 76.0588 108.121 76.0588C109.01 76.0588 109.755 76.2451 110.356 76.6175C110.957 76.99 111.413 77.4886 111.726 78.1134C112.038 78.7321 112.194 79.414 112.194 80.1589V81.1321C112.194 81.877 112.035 82.5588 111.717 83.1776C111.404 83.7963 110.945 84.292 110.338 84.6644C109.737 85.0309 108.998 85.2141 108.121 85.2141C107.244 85.2141 106.502 85.0279 105.895 84.6554C105.295 84.2769 104.838 83.7813 104.526 83.1686C104.219 82.5498 104.066 81.871 104.066 81.1321ZM106.706 80.1589V81.1321C106.706 81.5706 106.809 81.9761 107.013 82.3486C107.223 82.721 107.592 82.9073 108.121 82.9073C108.674 82.9073 109.049 82.721 109.248 82.3486C109.452 81.9761 109.554 81.5706 109.554 81.1321V80.1589C109.554 79.7203 109.458 79.3118 109.266 78.9334C109.073 78.5549 108.692 78.3657 108.121 78.3657C107.586 78.3657 107.217 78.5579 107.013 78.9424C106.809 79.3268 106.706 79.7323 106.706 80.1589ZM105.256 95.1533L117.943 76.6986H120.304L107.617 95.1533H105.256Z" fill="black"/>
<path d="M77.4637 104.836H77.5989V106.163H77.4637C76.6358 106.163 75.9431 106.298 75.3856 106.568C74.828 106.833 74.3859 107.19 74.0592 107.641C73.7326 108.086 73.496 108.587 73.3496 109.145C73.2088 109.702 73.1384 110.268 73.1384 110.843V112.651C73.1384 113.197 73.2032 113.681 73.3327 114.104C73.4623 114.52 73.6397 114.872 73.8649 115.16C74.0902 115.447 74.3437 115.664 74.6252 115.81C74.9125 115.957 75.211 116.03 75.5207 116.03C75.8812 116.03 76.2022 115.962 76.4838 115.827C76.7654 115.686 77.0019 115.492 77.1934 115.244C77.3905 114.991 77.5398 114.692 77.6411 114.349C77.7425 114.005 77.7932 113.628 77.7932 113.217C77.7932 112.851 77.7482 112.499 77.658 112.161C77.5679 111.817 77.43 111.513 77.2441 111.248C77.0582 110.978 76.8245 110.767 76.5429 110.615C76.267 110.457 75.9375 110.378 75.5545 110.378C75.1209 110.378 74.7154 110.485 74.338 110.699C73.9663 110.908 73.6594 111.183 73.4172 111.527C73.1807 111.865 73.0455 112.234 73.0117 112.634L72.1838 112.625C72.2627 111.994 72.4091 111.457 72.6231 111.012C72.8427 110.561 73.1131 110.195 73.4341 109.913C73.7607 109.626 74.124 109.418 74.5239 109.288C74.9294 109.153 75.3574 109.086 75.808 109.086C76.4218 109.086 76.9512 109.201 77.3962 109.432C77.8411 109.663 78.2072 109.973 78.4944 110.361C78.7816 110.744 78.9928 111.178 79.128 111.662C79.2688 112.141 79.3392 112.634 79.3392 113.141C79.3392 113.721 79.2575 114.264 79.0942 114.771C78.9309 115.278 78.6859 115.723 78.3592 116.106C78.0382 116.489 77.6411 116.787 77.1681 117.001C76.695 117.215 76.1459 117.322 75.5207 117.322C74.8562 117.322 74.2761 117.187 73.7805 116.917C73.2849 116.641 72.8737 116.275 72.5471 115.819C72.2204 115.362 71.9754 114.855 71.8121 114.298C71.6488 113.74 71.5671 113.174 71.5671 112.6V111.865C71.5671 110.998 71.6544 110.147 71.829 109.314C72.0036 108.48 72.3049 107.725 72.7329 107.05C73.1666 106.374 73.7664 105.836 74.5323 105.436C75.2983 105.036 76.2754 104.836 77.4637 104.836ZM89.1303 113.436L91.5717 104.853H92.7544L92.0702 108.19L89.4429 117.153H88.2686L89.1303 113.436ZM86.6044 104.853L88.5474 113.267L89.1303 117.153H87.9645L84.9824 104.853H86.6044ZM95.9139 113.259L97.8147 104.853H99.4452L96.4715 117.153H95.3057L95.9139 113.259ZM92.9318 104.853L95.3057 113.436L96.1674 117.153H94.9931L92.4588 108.19L91.766 104.853H92.9318ZM104.539 117.322C103.903 117.322 103.326 117.215 102.807 117.001C102.295 116.782 101.853 116.475 101.481 116.08C101.115 115.686 100.833 115.219 100.636 114.678C100.439 114.137 100.341 113.546 100.341 112.904V112.549C100.341 111.806 100.45 111.144 100.67 110.564C100.89 109.978 101.188 109.483 101.566 109.077C101.943 108.672 102.371 108.365 102.85 108.156C103.328 107.948 103.824 107.844 104.336 107.844C104.99 107.844 105.553 107.956 106.026 108.182C106.505 108.407 106.896 108.722 107.2 109.128C107.504 109.528 107.73 110.001 107.876 110.547C108.023 111.088 108.096 111.679 108.096 112.321V113.022H101.27V111.747H106.533V111.628C106.51 111.223 106.426 110.829 106.28 110.446C106.139 110.063 105.913 109.747 105.604 109.5C105.294 109.252 104.872 109.128 104.336 109.128C103.982 109.128 103.655 109.204 103.357 109.356C103.058 109.502 102.802 109.722 102.588 110.015C102.374 110.308 102.208 110.665 102.089 111.088C101.971 111.51 101.912 111.997 101.912 112.549V112.904C101.912 113.338 101.971 113.746 102.089 114.129C102.213 114.506 102.391 114.839 102.622 115.126C102.858 115.413 103.143 115.638 103.475 115.802C103.813 115.965 104.196 116.047 104.624 116.047C105.176 116.047 105.643 115.934 106.026 115.709C106.409 115.483 106.744 115.182 107.031 114.805L107.978 115.557C107.78 115.855 107.53 116.14 107.226 116.41C106.922 116.68 106.547 116.9 106.102 117.069C105.663 117.238 105.142 117.322 104.539 117.322ZM113.714 117.322C113.077 117.322 112.5 117.215 111.982 117.001C111.469 116.782 111.027 116.475 110.656 116.08C110.289 115.686 110.008 115.219 109.811 114.678C109.614 114.137 109.515 113.546 109.515 112.904V112.549C109.515 111.806 109.625 111.144 109.845 110.564C110.064 109.978 110.363 109.483 110.74 109.077C111.117 108.672 111.545 108.365 112.024 108.156C112.503 107.948 112.998 107.844 113.511 107.844C114.164 107.844 114.727 107.956 115.2 108.182C115.679 108.407 116.071 108.722 116.375 109.128C116.679 109.528 116.904 110.001 117.051 110.547C117.197 111.088 117.27 111.679 117.27 112.321V113.022H110.444V111.747H115.707V111.628C115.685 111.223 115.6 110.829 115.454 110.446C115.313 110.063 115.088 109.747 114.778 109.5C114.468 109.252 114.046 109.128 113.511 109.128C113.156 109.128 112.829 109.204 112.531 109.356C112.232 109.502 111.976 109.722 111.762 110.015C111.548 110.308 111.382 110.665 111.264 111.088C111.145 111.51 111.086 111.997 111.086 112.549V112.904C111.086 113.338 111.145 113.746 111.264 114.129C111.388 114.506 111.565 114.839 111.796 115.126C112.033 115.413 112.317 115.638 112.649 115.802C112.987 115.965 113.37 116.047 113.798 116.047C114.35 116.047 114.818 115.934 115.2 115.709C115.583 115.483 115.919 115.182 116.206 114.805L117.152 115.557C116.955 115.855 116.704 116.14 116.4 116.41C116.096 116.68 115.721 116.9 115.277 117.069C114.837 117.238 114.316 117.322 113.714 117.322ZM120.666 104.177V117.153H119.095V104.177H120.666ZM126.25 108.013L122.263 112.279L120.033 114.594L119.906 112.929L121.503 111.02L124.341 108.013H126.25ZM124.823 117.153L121.562 112.794L122.373 111.4L126.664 117.153H124.823ZM133.186 114.729C133.186 114.503 133.135 114.295 133.034 114.104C132.938 113.907 132.738 113.729 132.434 113.571C132.136 113.408 131.685 113.267 131.083 113.149C130.576 113.042 130.117 112.915 129.706 112.769C129.3 112.622 128.954 112.445 128.666 112.237C128.385 112.028 128.168 111.783 128.016 111.502C127.864 111.22 127.788 110.891 127.788 110.513C127.788 110.153 127.867 109.812 128.024 109.491C128.188 109.17 128.416 108.886 128.709 108.638C129.007 108.39 129.365 108.196 129.782 108.055C130.198 107.914 130.663 107.844 131.175 107.844C131.908 107.844 132.533 107.973 133.051 108.232C133.569 108.491 133.966 108.838 134.242 109.271C134.518 109.699 134.656 110.175 134.656 110.699H133.093C133.093 110.446 133.017 110.201 132.865 109.964C132.719 109.722 132.502 109.522 132.215 109.364C131.933 109.207 131.587 109.128 131.175 109.128C130.742 109.128 130.39 109.195 130.119 109.331C129.855 109.46 129.66 109.626 129.537 109.829C129.418 110.032 129.359 110.246 129.359 110.471C129.359 110.64 129.387 110.792 129.444 110.927C129.506 111.057 129.613 111.178 129.765 111.29C129.917 111.397 130.131 111.499 130.407 111.595C130.683 111.69 131.035 111.786 131.463 111.882C132.212 112.051 132.828 112.254 133.313 112.49C133.797 112.727 134.158 113.017 134.394 113.36C134.631 113.704 134.749 114.121 134.749 114.611C134.749 115.01 134.664 115.376 134.495 115.709C134.332 116.041 134.093 116.328 133.777 116.57C133.468 116.807 133.096 116.993 132.662 117.128C132.234 117.258 131.753 117.322 131.218 117.322C130.412 117.322 129.731 117.179 129.173 116.891C128.616 116.604 128.193 116.232 127.906 115.776C127.619 115.32 127.475 114.839 127.475 114.332H129.047C129.069 114.76 129.193 115.1 129.418 115.354C129.644 115.602 129.92 115.779 130.246 115.886C130.573 115.988 130.897 116.038 131.218 116.038C131.646 116.038 132.003 115.982 132.291 115.869C132.583 115.757 132.806 115.602 132.958 115.405C133.11 115.207 133.186 114.982 133.186 114.729Z" fill="black"/>
<path d="M80.8869 173.174H78.53V171.936H80.8869C81.2973 171.936 81.629 171.87 81.8818 171.737C82.1347 171.605 82.3192 171.422 82.4353 171.19C82.5555 170.954 82.6157 170.684 82.6157 170.382C82.6157 170.096 82.5555 169.828 82.4353 169.58C82.3192 169.327 82.1347 169.124 81.8818 168.97C81.629 168.817 81.2973 168.74 80.8869 168.74H79.0088V176.551H77.4479V167.496H80.8869C81.5875 167.496 82.1824 167.621 82.6716 167.869C83.165 168.114 83.5402 168.454 83.7972 168.889C84.0543 169.32 84.1828 169.814 84.1828 170.369C84.1828 170.954 84.0543 171.456 83.7972 171.874C83.5402 172.293 83.165 172.614 82.6716 172.838C82.1824 173.062 81.5875 173.174 80.8869 173.174ZM91.2535 175.313V176.551H86.7076V175.313H91.2535ZM87.1429 167.496V176.551H85.582V167.496H87.1429ZM96.1103 168.703L93.4051 176.551H91.7696L95.1775 167.496H96.2222L96.1103 168.703ZM98.3739 176.551L95.6625 168.703L95.5444 167.496H96.5953L100.016 176.551H98.3739ZM98.2433 173.193V174.43H93.3181V173.193H98.2433ZM108.212 167.496V176.551H106.651L102.59 170.065V176.551H101.029V167.496H102.59L106.663 173.995V167.496H108.212ZM117.254 167.496V176.551H115.693L111.632 170.065V176.551H110.071V167.496H111.632L115.705 173.995V167.496H117.254ZM120.78 167.496V176.551H119.219V167.496H120.78ZM129.903 167.496V176.551H128.342L124.281 170.065V176.551H122.72V167.496H124.281L128.354 173.995V167.496H129.903ZM138.715 171.924V175.382C138.586 175.552 138.385 175.738 138.112 175.941C137.842 176.14 137.483 176.312 137.036 176.458C136.588 176.603 136.03 176.675 135.363 176.675C134.795 176.675 134.275 176.58 133.802 176.389C133.329 176.194 132.921 175.91 132.577 175.537C132.237 175.164 131.974 174.71 131.787 174.175C131.601 173.636 131.507 173.023 131.507 172.334V171.706C131.507 171.022 131.592 170.413 131.762 169.878C131.936 169.339 132.185 168.883 132.508 168.51C132.832 168.137 133.222 167.855 133.678 167.664C134.138 167.469 134.658 167.372 135.238 167.372C135.981 167.372 136.594 167.496 137.079 167.745C137.568 167.99 137.946 168.33 138.211 168.765C138.476 169.2 138.644 169.698 138.715 170.257H137.185C137.135 169.942 137.038 169.66 136.893 169.412C136.752 169.163 136.549 168.968 136.283 168.827C136.022 168.682 135.682 168.609 135.263 168.609C134.903 168.609 134.586 168.678 134.312 168.815C134.038 168.952 133.81 169.153 133.628 169.418C133.45 169.683 133.315 170.007 133.224 170.388C133.132 170.769 133.087 171.205 133.087 171.694V172.334C133.087 172.832 133.139 173.274 133.242 173.659C133.35 174.045 133.503 174.37 133.702 174.635C133.906 174.901 134.152 175.102 134.442 175.239C134.733 175.371 135.06 175.438 135.425 175.438C135.782 175.438 136.074 175.409 136.302 175.351C136.53 175.288 136.71 175.216 136.843 175.133C136.98 175.046 137.085 174.963 137.16 174.884V173.087H135.276V171.924H138.715Z" fill="black"/>
<path d="M76.5275 287.385H278.376" stroke="#EBEBFA" stroke-width="1.15342"/>
<path d="M76.5275 321.988H278.376" stroke="#EBEBFA" stroke-width="1.15342"/>
<path d="M77.6828 319.965L109.979 306.7L133.047 311.314L156.115 292.859L180.533 301.51L215.332 281.902L248.4 296.32L273.971 277.288" stroke="#01AFD1" stroke-width="1.15342" stroke-linejoin="round" stroke-dasharray="4.61 4.61"/>
<path d="M77.6828 319.968L109.979 306.704L133.047 311.317L156.115 292.863L174.533 299.513" stroke="#01AFD1" stroke-width="2.30684" stroke-linejoin="round"/>
<circle cx="178.956" cy="301.051" r="5.19039" fill="white" stroke="#01AFD1" stroke-width="1.15342"/>
<circle cx="244.002" cy="109.139" r="9.52816" fill="white" stroke="#01AFD1" stroke-width="1.15342"/>
<defs>
<filter id="filter0_d_95_1256" x="0" y="0.613676" width="357.212" height="394.122" filterUnits="userSpaceOnUse" color-interpolation-filters="sRGB">
<feFlood flood-opacity="0" result="BackgroundImageFix"/>
<feColorMatrix in="SourceAlpha" type="matrix" values="0 0 0 0 0 0 0 0 0 0 0 0 0 0 0 0 0 0 127 0" result="hardAlpha"/>
<feOffset dy="4.61368"/>
<feGaussianBlur stdDeviation="25"/>
<feComposite in2="hardAlpha" operator="out"/>
<feColorMatrix type="matrix" values="0 0 0 0 0 0 0 0 0 0 0 0 0 0 0 0 0 0 0.04 0"/>
<feBlend mode="normal" in2="BackgroundImageFix" result="effect1_dropShadow_95_1256"/>
<feBlend mode="normal" in="SourceGraphic" in2="effect1_dropShadow_95_1256" result="shape"/>
</filter>
<filter id="filter1_d_95_1256" x="0.326111" y="94.0673" width="357.674" height="312.202" filterUnits="userSpaceOnUse" color-interpolation-filters="sRGB">
<feFlood flood-opacity="0" result="BackgroundImageFix"/>
<feColorMatrix in="SourceAlpha" type="matrix" values="0 0 0 0 0 0 0 0 0 0 0 0 0 0 0 0 0 0 127 0" result="hardAlpha"/>
<feOffset dy="4.61368"/>
<feGaussianBlur stdDeviation="25"/>
<feComposite in2="hardAlpha" operator="out"/>
<feColorMatrix type="matrix" values="0 0 0 0 0 0 0 0 0 0 0 0 0 0 0 0 0 0 0.04 0"/>
<feBlend mode="normal" in2="BackgroundImageFix" result="effect1_dropShadow_95_1256"/>
<feBlend mode="normal" in="SourceGraphic" in2="effect1_dropShadow_95_1256" result="shape"/>
</filter>
<filter id="filter2_d_95_1256" x="108.861" y="20.7147" width="231.548" height="127.131" filterUnits="userSpaceOnUse" color-interpolation-filters="sRGB">
<feFlood flood-opacity="0" result="BackgroundImageFix"/>
<feColorMatrix in="SourceAlpha" type="matrix" values="0 0 0 0 0 0 0 0 0 0 0 0 0 0 0 0 0 0 127 0" result="hardAlpha"/>
<feOffset dy="4.61368"/>
<feGaussianBlur stdDeviation="28.8355"/>
<feComposite in2="hardAlpha" operator="out"/>
<feColorMatrix type="matrix" values="0 0 0 0 0 0 0 0 0 0 0 0 0 0 0 0 0 0 0.05 0"/>
<feBlend mode="normal" in2="BackgroundImageFix" result="effect1_dropShadow_95_1256"/>
<feBlend mode="normal" in="SourceGraphic" in2="effect1_dropShadow_95_1256" result="shape"/>
</filter>
<filter id="filter3_d_95_1256" x="108.861" y="20.7147" width="165.866" height="127.131" filterUnits="userSpaceOnUse" color-interpolation-filters="sRGB">
<feFlood flood-opacity="0" result="BackgroundImageFix"/>
<feColorMatrix in="SourceAlpha" type="matrix" values="0 0 0 0 0 0 0 0 0 0 0 0 0 0 0 0 0 0 127 0" result="hardAlpha"/>
<feOffset dy="4.61368"/>
<feGaussianBlur stdDeviation="28.8355"/>
<feComposite in2="hardAlpha" operator="out"/>
<feColorMatrix type="matrix" values="0 0 0 0 0 0 0 0 0 0 0 0 0 0 0 0 0 0 0.05 0"/>
<feBlend mode="normal" in2="BackgroundImageFix" result="effect1_dropShadow_95_1256"/>
<feBlend mode="normal" in="SourceGraphic" in2="effect1_dropShadow_95_1256" result="shape"/>
</filter>
<filter id="filter4_d_95_1256" x="108.861" y="51.0291" width="231.548" height="127.131" filterUnits="userSpaceOnUse" color-interpolation-filters="sRGB">
<feFlood flood-opacity="0" result="BackgroundImageFix"/>
<feColorMatrix in="SourceAlpha" type="matrix" values="0 0 0 0 0 0 0 0 0 0 0 0 0 0 0 0 0 0 127 0" result="hardAlpha"/>
<feOffset dy="4.61368"/>
<feGaussianBlur stdDeviation="28.8355"/>
<feComposite in2="hardAlpha" operator="out"/>
<feColorMatrix type="matrix" values="0 0 0 0 0 0 0 0 0 0 0 0 0 0 0 0 0 0 0.05 0"/>
<feBlend mode="normal" in2="BackgroundImageFix" result="effect1_dropShadow_95_1256"/>
<feBlend mode="normal" in="SourceGraphic" in2="effect1_dropShadow_95_1256" result="shape"/>
</filter>
<filter id="filter5_d_95_1256" x="108.861" y="51.0291" width="197.865" height="127.131" filterUnits="userSpaceOnUse" color-interpolation-filters="sRGB">
<feFlood flood-opacity="0" result="BackgroundImageFix"/>
<feColorMatrix in="SourceAlpha" type="matrix" values="0 0 0 0 0 0 0 0 0 0 0 0 0 0 0 0 0 0 127 0" result="hardAlpha"/>
<feOffset dy="4.61368"/>
<feGaussianBlur stdDeviation="28.8355"/>
<feComposite in2="hardAlpha" operator="out"/>
<feColorMatrix type="matrix" values="0 0 0 0 0 0 0 0 0 0 0 0 0 0 0 0 0 0 0.05 0"/>
<feBlend mode="normal" in2="BackgroundImageFix" result="effect1_dropShadow_95_1256"/>
<feBlend mode="normal" in="SourceGraphic" in2="effect1_dropShadow_95_1256" result="shape"/>
</filter>
</defs>
</svg>
