<svg width="16" height="16" viewBox="0 0 16 16" fill="none" xmlns="http://www.w3.org/2000/svg">
<path d="M6.23319 8.94271H1.40269C1.03469 8.94271 0.721857 8.81387 0.46419 8.55621C0.206524 8.29871 0.0776901 7.98587 0.0776901 7.61771C0.0776901 7.24954 0.206524 6.93671 0.46419 6.67921C0.721857 6.42154 1.03469 6.29271 1.40269 6.29271H6.23319V1.46221C6.23319 1.09421 6.36202 0.781373 6.61969 0.523706C6.87719 0.266039 7.19002 0.137207 7.55819 0.137207C7.92636 0.137207 8.23919 0.266039 8.49669 0.523706C8.75436 0.781373 8.88319 1.09421 8.88319 1.46221V6.29271H13.7137C14.0817 6.29271 14.3945 6.42154 14.6522 6.67921C14.9099 6.93671 15.0387 7.24954 15.0387 7.61771C15.0387 7.98587 14.9099 8.29871 14.6522 8.55621C14.3945 8.81387 14.0817 8.94271 13.7137 8.94271H8.88319V13.7732C8.88319 14.1412 8.75436 14.454 8.49669 14.7117C8.23919 14.9694 7.92636 15.0982 7.55819 15.0982C7.19002 15.0982 6.87719 14.9694 6.61969 14.7117C6.36202 14.454 6.23319 14.1412 6.23319 13.7732V8.94271Z" fill="black"/>
</svg>
