<svg width="528" height="494" viewBox="0 0 528 494" fill="none" xmlns="http://www.w3.org/2000/svg">
<g filter="url(#filter0_d_95_1533)">
<path d="M38.5 50C38.5 44.4772 42.9772 40 48.5 40H696.5V503H38.5V50Z" fill="white"/>
<rect x="66.4219" y="129" width="115" height="8" fill="#B9B9B9"/>
<rect x="66.4219" y="145" width="278" height="8" fill="#D9D9D9"/>
<rect x="66.4219" y="161" width="195" height="8" fill="#D9D9D9"/>
<g opacity="0.5">
<circle cx="71.9219" cy="182.5" r="5.5" fill="#D9D9D9"/>
<circle cx="87.9219" cy="182.5" r="5.5" fill="#D9D9D9"/>
<circle cx="103.922" cy="182.5" r="5.5" fill="#D9D9D9"/>
</g>
<rect x="66.4219" y="223" width="115" height="8" fill="#B9B9B9"/>
<rect x="66.4219" y="239" width="278" height="8" fill="#D9D9D9"/>
<rect x="66.4219" y="255" width="195" height="8" fill="#D9D9D9"/>
<g opacity="0.5">
<circle cx="71.9219" cy="276.5" r="5.5" fill="#D9D9D9"/>
<circle cx="87.9219" cy="276.5" r="5.5" fill="#D9D9D9"/>
<circle cx="103.922" cy="276.5" r="5.5" fill="#D9D9D9"/>
</g>
<rect x="66.4219" y="317" width="115" height="8" fill="#B9B9B9"/>
<rect x="66.4219" y="333" width="278" height="8" fill="#D9D9D9"/>
<rect x="66.4219" y="349" width="195" height="8" fill="#D9D9D9"/>
<g opacity="0.5">
<circle cx="71.9219" cy="370.5" r="5.5" fill="#D9D9D9"/>
<circle cx="87.9219" cy="370.5" r="5.5" fill="#D9D9D9"/>
<circle cx="103.922" cy="370.5" r="5.5" fill="#D9D9D9"/>
</g>
<rect x="66.4219" y="411" width="115" height="8" fill="#B9B9B9"/>
<rect x="66.4219" y="427" width="278" height="8" fill="#D9D9D9"/>
<rect x="66.4219" y="443" width="195" height="8" fill="#D9D9D9"/>
<g opacity="0.5">
<circle cx="71.9219" cy="464.5" r="5.5" fill="#D9D9D9"/>
<circle cx="87.9219" cy="464.5" r="5.5" fill="#D9D9D9"/>
<circle cx="103.922" cy="464.5" r="5.5" fill="#D9D9D9"/>
</g>
<rect x="416.734" y="129" width="110.625" height="110.625" fill="#69E6FF"/>
<rect opacity="0.2" x="416.734" y="255.625" width="110.625" height="159.43" fill="#757E87"/>
<rect x="416.734" y="431.056" width="110.625" height="159.43" fill="#CAD94A"/>
</g>
<defs>
<filter id="filter0_d_95_1533" x="0.5" y="0" width="722" height="614.486" filterUnits="userSpaceOnUse" color-interpolation-filters="sRGB">
<feFlood flood-opacity="0" result="BackgroundImageFix"/>
<feColorMatrix in="SourceAlpha" type="matrix" values="0 0 0 0 0 0 0 0 0 0 0 0 0 0 0 0 0 0 127 0" result="hardAlpha"/>
<feOffset dx="-6" dy="-8"/>
<feGaussianBlur stdDeviation="16"/>
<feComposite in2="hardAlpha" operator="out"/>
<feColorMatrix type="matrix" values="0 0 0 0 0 0 0 0 0 0 0 0 0 0 0 0 0 0 0.08 0"/>
<feBlend mode="normal" in2="BackgroundImageFix" result="effect1_dropShadow_95_1533"/>
<feBlend mode="normal" in="SourceGraphic" in2="effect1_dropShadow_95_1533" result="shape"/>
</filter>
</defs>
</svg>
