<svg width="75" height="74" viewBox="0 0 75 74" fill="none" xmlns="http://www.w3.org/2000/svg">
<path d="M9.69922 24.9922L16.239 18.4524L19.5088 21.7223L12.9691 28.2621L9.69922 24.9922Z" fill="#4A5660"/>
<path d="M14.1953 27.0312L18.2825 22.9441L23.5968 28.2585L19.5097 32.3456L14.1953 27.0312Z" fill="#6E7E92"/>
<path d="M51.3906 28.2656L56.705 22.9513L60.7921 27.0384L55.4778 32.3528L51.3906 28.2656Z" fill="#6E7E92"/>
<path d="M62.0312 28.2734L55.4915 21.7337L58.7614 18.4638L65.3011 25.0036L62.0312 28.2734Z" fill="#4A5660"/>
<path d="M37.5 17.3438C35.8992 17.3438 34.3344 16.8691 33.0034 15.9797C31.6723 15.0904 30.635 13.8263 30.0224 12.3473C29.4098 10.8684 29.2495 9.24103 29.5618 7.67099C29.8741 6.10096 30.6449 4.65879 31.7769 3.52686C32.9088 2.39493 34.351 1.62407 35.921 1.31177C37.491 0.999474 39.1184 1.15976 40.5973 1.77235C42.0763 2.38495 43.3404 3.42235 44.2297 4.75336C45.1191 6.08437 45.5938 7.64921 45.5938 9.25C45.5913 11.3958 44.7378 13.4531 43.2204 14.9704C41.7031 16.4878 39.6459 17.3413 37.5 17.3438ZM37.5 3.46875C36.3566 3.46875 35.2388 3.80782 34.2881 4.44307C33.3374 5.07832 32.5964 5.98123 32.1588 7.03761C31.7213 8.094 31.6068 9.25642 31.8298 10.3779C32.0529 11.4993 32.6035 12.5294 33.412 13.338C34.2206 14.1465 35.2507 14.6971 36.3721 14.9202C37.4936 15.1432 38.656 15.0288 39.7124 14.5912C40.7688 14.1536 41.6717 13.4126 42.3069 12.4619C42.9422 11.5112 43.2813 10.3934 43.2813 9.25C43.2794 7.71728 42.6697 6.24787 41.5859 5.16407C40.5021 4.08027 39.0327 3.47059 37.5 3.46875Z" fill="#CEDD48"/>
<path d="M37.5 10.4062C38.42 10.4062 39.3023 10.7717 39.9528 11.4222C40.6033 12.0727 40.9688 12.955 40.9688 13.875V23.125H34.0312V13.875C34.0312 12.955 34.3967 12.0727 35.0472 11.4222C35.6977 10.7717 36.58 10.4063 37.5 10.4062Z" fill="#8293A6"/>
<path d="M37.5 15.61V23.1256H40.9688V13.8756C40.9632 13.2824 40.8038 12.7007 40.5062 12.1875C39.6755 12.2968 38.9127 12.7041 38.3597 13.3336C37.8068 13.9631 37.5012 14.7721 37.5 15.61Z" fill="#6E7E92"/>
<path d="M37.5 71.6875C51.5487 71.6875 62.9375 60.2987 62.9375 46.25C62.9375 32.2013 51.5487 20.8125 37.5 20.8125C23.4513 20.8125 12.0625 32.2013 12.0625 46.25C12.0625 60.2987 23.4513 71.6875 37.5 71.6875Z" fill="#5A6978"/>
<path d="M39.8118 23.125C34.9201 23.1238 30.1318 24.5335 26.021 27.185C21.9103 29.8366 18.6515 33.6175 16.6354 38.0744C14.6192 42.5314 13.9314 47.4752 14.6542 52.3133C15.377 57.1513 17.4798 61.6782 20.7106 65.3513C25.5639 69.6176 31.8592 71.8764 38.3178 71.6688C44.7763 71.4612 50.9136 68.8028 55.4828 64.2335C60.0521 59.6643 62.7106 53.527 62.9182 47.0684C63.1258 40.6099 60.867 34.3145 56.6006 29.4613C51.9654 25.3706 45.9939 23.1169 39.8118 23.125Z" fill="#4A5660"/>
<path d="M37.5 67.0625C48.9944 67.0625 58.3125 57.7444 58.3125 46.25C58.3125 34.7556 48.9944 25.4375 37.5 25.4375C26.0056 25.4375 16.6875 34.7556 16.6875 46.25C16.6875 57.7444 26.0056 67.0625 37.5 67.0625Z" fill="#E6F0FF"/>
<path d="M58.314 46.2464C58.317 43.1757 57.6391 40.1425 56.3291 37.3652C55.0192 34.5879 53.1097 32.1357 50.7382 30.1849C46.1836 27.7686 40.8943 27.1289 35.8949 28.3897C30.8956 29.6506 26.5422 32.7222 23.6782 37.0094C20.8142 41.2967 19.6435 46.4944 20.393 51.5955C21.1424 56.6966 23.7586 61.338 27.7346 64.6204C30.9054 66.3077 34.459 67.1454 38.0496 67.052C41.6401 66.9585 45.1454 65.9372 48.2241 64.0873C51.3029 62.2374 53.8503 59.6219 55.6184 56.4955C57.3865 53.3691 58.3152 49.8382 58.314 46.2464Z" fill="#F5FAFF"/>
<path d="M37.5 30.0625C40.7016 30.0625 43.8313 31.0119 46.4933 32.7906C49.1553 34.5693 51.2301 37.0974 52.4553 40.0553C53.6805 43.0132 54.0011 46.268 53.3765 49.408C52.7519 52.5481 51.2102 55.4324 48.9463 57.6963C46.6824 59.9602 43.7981 61.5019 40.658 62.1265C37.518 62.7511 34.2632 62.4305 31.3053 61.2053C28.3474 59.9801 25.8193 57.9053 24.0406 55.2433C22.2619 52.5813 21.3125 49.4516 21.3125 46.25H37.5V30.0625Z" fill="#01AFD1"/>
</svg>
