<svg width="151" height="151" viewBox="0 0 151 151" fill="none" xmlns="http://www.w3.org/2000/svg">
<g filter="url(#filter0_d_95_1404)">
<path d="M147.845 38.917C146.108 32.378 140.992 27.2284 134.495 25.4804C122.719 22.3047 75.5 22.3047 75.5 22.3047C75.5 22.3047 28.2809 22.3047 16.5053 25.4804C10.0085 27.2281 4.89187 32.378 3.15537 38.917C0 50.7694 0 75.498 0 75.498C0 75.498 0 100.227 3.15537 112.079C4.89187 118.618 10.0085 123.768 16.5053 125.516C28.2809 128.691 75.5 128.691 75.5 128.691C75.5 128.691 122.719 128.691 134.495 125.516C140.992 123.768 146.108 118.618 147.845 112.079C151 100.227 151 75.498 151 75.498C151 75.498 151 50.7694 147.845 38.917Z" fill="#FF0000"/>
</g>
<path d="M60.0547 97.9505L99.5205 75.4993L60.0547 53.0469V97.9505Z" fill="white"/>
<defs>
<filter id="filter0_d_95_1404" x="-30" y="-3.69531" width="211" height="166.387" filterUnits="userSpaceOnUse" color-interpolation-filters="sRGB">
<feFlood flood-opacity="0" result="BackgroundImageFix"/>
<feColorMatrix in="SourceAlpha" type="matrix" values="0 0 0 0 0 0 0 0 0 0 0 0 0 0 0 0 0 0 127 0" result="hardAlpha"/>
<feOffset dy="4"/>
<feGaussianBlur stdDeviation="15"/>
<feComposite in2="hardAlpha" operator="out"/>
<feColorMatrix type="matrix" values="0 0 0 0 0 0 0 0 0 0 0 0 0 0 0 0 0 0 0.14 0"/>
<feBlend mode="normal" in2="BackgroundImageFix" result="effect1_dropShadow_95_1404"/>
<feBlend mode="normal" in="SourceGraphic" in2="effect1_dropShadow_95_1404" result="shape"/>
</filter>
</defs>
</svg>
